# xmcd
#
# Track frame offsets: 
#        150
#        19045
#        44475
#        77975
#        99980
#
# Disc length: 1640 seconds
#
# Revision: 2
# Processed by: cddbd v1.5.2PL0 Copyright (c) Steve Scherf et al.
# Submitted via: ExactAudioCopy v0.99pb4
#
DISCID=34066605
DTITLE=Michael Jackson - In The Closet [CD Single)
DYEAR=1991
DGENRE=Club
TTITLE0=In The Closet (Club Edit)
TTITLE1=In The Closet (The Underground Mix)
TTITLE2=In The Closet (The Promise)
TTITLE3=In The Closet (The Vow)
TTITLE4=Remember The Time (New Jack Jazz)
EXTD=
EXTT0=
EXTT1=
EXTT2=
EXTT3=
EXTT4=
PLAYORDER=
